<svg width="14" height="14" viewBox="0 0 14 14" fill="none" xmlns="http://www.w3.org/2000/svg">
<path d="M13.714 12.0006H1.42829V0.857701C1.42829 0.779129 1.36401 0.714844 1.28544 0.714844H0.285435C0.206864 0.714844 0.142578 0.779129 0.142578 0.857701V13.1434C0.142578 13.222 0.206864 13.2863 0.285435 13.2863H13.714C13.7926 13.2863 13.8569 13.222 13.8569 13.1434V12.1434C13.8569 12.0648 13.7926 12.0006 13.714 12.0006ZM2.99972 10.572H3.99972C4.07829 10.572 4.14258 10.5077 4.14258 10.4291V7.8577C4.14258 7.77913 4.07829 7.71484 3.99972 7.71484H2.99972C2.92115 7.71484 2.85686 7.77913 2.85686 7.8577V10.4291C2.85686 10.5077 2.92115 10.572 2.99972 10.572ZM5.71401 10.572H6.71401C6.79258 10.572 6.85687 10.5077 6.85687 10.4291V4.71484C6.85687 4.63627 6.79258 4.57199 6.71401 4.57199H5.71401C5.63544 4.57199 5.57115 4.63627 5.57115 4.71484V10.4291C5.57115 10.5077 5.63544 10.572 5.71401 10.572ZM8.42829 10.572H9.4283C9.50687 10.572 9.57115 10.5077 9.57115 10.4291V6.1077C9.57115 6.02913 9.50687 5.96484 9.4283 5.96484H8.42829C8.34972 5.96484 8.28544 6.02913 8.28544 6.1077V10.4291C8.28544 10.5077 8.34972 10.572 8.42829 10.572ZM11.1426 10.572H12.1426C12.2212 10.572 12.2854 10.5077 12.2854 10.4291V3.28627C12.2854 3.2077 12.2212 3.14341 12.1426 3.14341H11.1426C11.064 3.14341 10.9997 3.2077 10.9997 3.28627V10.4291C10.9997 10.5077 11.064 10.572 11.1426 10.572Z" fill="#6D6D8E"/>
</svg>
