<svg width="10" height="12" viewBox="0 0 10 12" fill="none" xmlns="http://www.w3.org/2000/svg">
<path d="M8.57986 1.77628C7.31825 0.514676 5.26378 0.514676 4.00352 1.77628L0.507978 5.26914C0.485211 5.29191 0.473157 5.32271 0.473157 5.35486C0.473157 5.387 0.485211 5.4178 0.507978 5.44057L1.00217 5.93477C1.02476 5.95726 1.05534 5.96988 1.08722 5.96988C1.1191 5.96988 1.14967 5.95726 1.17226 5.93477L4.6678 2.44191C5.10173 2.00798 5.67896 1.76959 6.29236 1.76959C6.90575 1.76959 7.48298 2.00798 7.91557 2.44191C8.3495 2.87584 8.58789 3.45307 8.58789 4.06512C8.58789 4.67852 8.3495 5.25441 7.91557 5.68834L4.35307 9.2495L3.77584 9.82673C3.2361 10.3665 2.35887 10.3665 1.81914 9.82673C1.55798 9.56557 1.41468 9.2187 1.41468 8.84905C1.41468 8.47941 1.55798 8.13253 1.81914 7.87137L5.35352 4.33834C5.44325 4.24994 5.5611 4.20039 5.687 4.20039H5.68834C5.81423 4.20039 5.93075 4.24994 6.01914 4.33834C6.10887 4.42807 6.15709 4.54593 6.15709 4.67182C6.15709 4.79637 6.10753 4.91423 6.01914 5.00262L3.1303 7.88878C3.10753 7.91155 3.09548 7.94236 3.09548 7.9745C3.09548 8.00664 3.10753 8.03744 3.1303 8.06021L3.6245 8.55441C3.64709 8.5769 3.67767 8.58953 3.70954 8.58953C3.74142 8.58953 3.772 8.5769 3.79459 8.55441L6.68209 5.66691C6.94861 5.40039 7.09459 5.04682 7.09459 4.67048C7.09459 4.29414 6.94727 3.93923 6.68209 3.67405C6.13164 3.1236 5.237 3.12494 4.68655 3.67405L4.34369 4.01825L1.15351 7.20709C0.936993 7.42234 0.765361 7.67843 0.64857 7.96052C0.53178 8.24261 0.472157 8.54508 0.473157 8.85039C0.473157 9.47048 0.715568 10.0531 1.15351 10.491C1.60753 10.9437 2.20218 11.17 2.79682 11.17C3.39146 11.17 3.9861 10.9437 4.43878 10.491L8.57986 6.35262C9.18923 5.74191 9.52673 4.92896 9.52673 4.06512C9.52807 3.19994 9.19057 2.387 8.57986 1.77628Z" fill="#A0A3BD"/>
</svg>
