<svg width="16" height="14" viewBox="0 0 16 14" fill="none" xmlns="http://www.w3.org/2000/svg">
<path d="M15.9287 10.1128L15.9251 10.1093C15.1376 8.4432 13.918 7.58606 12.2948 7.58606C10.6716 7.58606 9.45193 8.44499 8.66265 10.1093V10.1111C8.61502 10.2128 8.59033 10.3237 8.59033 10.4361C8.59033 10.5484 8.61502 10.6593 8.66265 10.7611C9.45193 12.4253 10.6716 13.2825 12.2948 13.2825C13.918 13.2825 15.1376 12.4236 15.9269 10.7593C16.0234 10.5539 16.0234 10.3164 15.9287 10.1128ZM12.2948 12.1396C11.1859 12.1396 10.3769 11.6039 9.77515 10.4343C10.3751 9.26463 11.1859 8.72892 12.2948 8.72892C13.4037 8.72892 14.2126 9.26463 14.8144 10.4343C14.2144 11.6039 13.4037 12.1396 12.2948 12.1396Z" fill="#6E7191"/>
<path d="M11.3036 10.4432C11.3036 10.7084 11.4089 10.9628 11.5965 11.1503C11.784 11.3378 12.0384 11.4432 12.3036 11.4432C12.5688 11.4432 12.8231 11.3378 13.0107 11.1503C13.1982 10.9628 13.3036 10.7084 13.3036 10.4432C13.3036 10.178 13.1982 9.92363 13.0107 9.7361C12.8231 9.54856 12.5688 9.4432 12.3036 9.4432C12.0384 9.4432 11.784 9.54856 11.5965 9.7361C11.4089 9.92363 11.3036 10.178 11.3036 10.4432ZM1.28571 1.99677H13.8571V6.51463H15.1429V1.28249C15.1429 0.966417 14.8875 0.71106 14.5714 0.71106H0.571429C0.255357 0.71106 0 0.966417 0 1.28249V10.5682C0 10.8843 0.255357 11.1396 0.571429 11.1396H6.85714V9.85392H1.28571V1.99677Z" fill="#6E7191"/>
<path d="M11.8019 3.894L11.1447 3.23686C11.1179 3.21027 11.0816 3.19536 11.0438 3.19536C11.006 3.19536 10.9698 3.21027 10.9429 3.23686L7.66079 6.52257L6.12329 4.98329C6.09644 4.9567 6.06018 4.94179 6.0224 4.94179C5.98461 4.94179 5.94836 4.9567 5.92151 4.98329L3.34472 7.56008C3.31813 7.58693 3.30322 7.62318 3.30322 7.66097C3.30322 7.69875 3.31813 7.73501 3.34472 7.76186L4.00186 8.419C4.05722 8.47436 4.14829 8.47436 4.20365 8.419L6.02151 6.60115L7.55901 8.14043C7.61436 8.19579 7.70544 8.19579 7.76079 8.14043L11.8019 4.09579C11.859 4.04043 11.859 3.94936 11.8019 3.894Z" fill="#6E7191"/>
</svg>
