<svg width="14" height="14" viewBox="0 0 14 14" fill="none" xmlns="http://www.w3.org/2000/svg">
<path d="M5.08993 12.8489V10.8105C5.08993 10.2901 5.51486 9.86825 6.03904 9.86825H7.95515C8.20687 9.86825 8.44828 9.96751 8.62627 10.1442C8.80427 10.3209 8.90426 10.5606 8.90426 10.8105V12.8489C8.90267 13.0653 8.98812 13.2733 9.14166 13.4268C9.2952 13.5804 9.50411 13.6667 9.72204 13.6667H11.0293C11.6398 13.6683 12.2259 13.4286 12.6582 13.0006C13.0905 12.5726 13.3334 11.9914 13.3334 11.3853V5.57795C13.3334 5.08835 13.1148 4.62394 12.7365 4.30982L8.28943 0.783953C7.51585 0.165748 6.40749 0.185709 5.65701 0.83136L1.31142 4.30982C0.915242 4.61468 0.67845 5.08046 0.666748 5.57795V11.3793C0.666748 12.6426 1.69834 13.6667 2.97086 13.6667H4.24827C4.7009 13.6667 5.06875 13.3042 5.07203 12.8549L5.08993 12.8489Z" fill="#4D34D7"/>
</svg>
